<svg xmlns="http://www.w3.org/2000/svg" viewBox="0 0 128 128">
  <defs>
    <linearGradient id="bg" x1="0%" y1="0%" x2="100%" y2="100%">
      <stop offset="0%" style="stop-color:#6366f1"/>
      <stop offset="100%" style="stop-color:#8b5cf6"/>
    </linearGradient>
  </defs>
  <rect width="128" height="128" rx="24" fill="url(#bg)"/>
  <path d="M40 36h48c4.4 0 8 3.6 8 8v40c0 4.4-3.6 8-8 8H40c-4.4 0-8-3.6-8-8V44c0-4.4 3.6-8 8-8z" fill="none" stroke="#fff" stroke-width="4"/>
  <circle cx="52" cy="60" r="6" fill="#fff"/>
  <circle cx="76" cy="60" r="6" fill="#fff"/>
  <path d="M50 76c0 0 6 8 14 8s14-8 14-8" fill="none" stroke="#fff" stroke-width="3.5" stroke-linecap="round"/>
  <path d="M64 92v12M56 100l8 4 8-4" fill="none" stroke="#fff" stroke-width="3" stroke-linecap="round" stroke-linejoin="round"/>
</svg>
